<mxfile host="app.diagrams.net" modified="2021-07-16T07:42:57.255Z" agent="5.0 (Windows NT 10.0; Win64; x64) AppleWebKit/537.36 (KHTML, like Gecko) Chrome/91.0.4472.124 Safari/537.36" etag="dQkJtoZ3sH5rQ7Css7l0" version="14.8.6" type="github" pages="2">
  <diagram id="VZICcWRFOJP2kb1DqosG" name="Page-1">
    <mxGraphModel dx="782" dy="436" grid="1" gridSize="10" guides="1" tooltips="1" connect="1" arrows="1" fold="1" page="1" pageScale="1" pageWidth="850" pageHeight="1100" math="0" shadow="0">
      <root>
        <mxCell id="0" />
        <mxCell id="1" parent="0" />
      </root>
    </mxGraphModel>
  </diagram>
  <diagram id="tFZjKesdVoR_Wh5Ui7Vk" name="Page-2">
    <mxGraphModel dx="782" dy="1536" grid="1" gridSize="10" guides="1" tooltips="1" connect="1" arrows="1" fold="1" page="1" pageScale="1" pageWidth="850" pageHeight="1100" math="0" shadow="0">
      <root>
        <mxCell id="yF2jjFJjA-9MAOKjVbNL-0" />
        <mxCell id="yF2jjFJjA-9MAOKjVbNL-1" parent="yF2jjFJjA-9MAOKjVbNL-0" />
        <mxCell id="J9jAqvIsXzl0PLYxBhgr-0" value="" style="shape=image;html=1;verticalAlign=top;verticalLabelPosition=bottom;labelBackgroundColor=#ffffff;imageAspect=0;aspect=fixed;image=https://cdn1.iconfinder.com/data/icons/business-startup-14/60/Development-128.png" parent="yF2jjFJjA-9MAOKjVbNL-1" vertex="1">
          <mxGeometry x="50" y="80" width="128" height="128" as="geometry" />
        </mxCell>
        <mxCell id="J9jAqvIsXzl0PLYxBhgr-1" value="Amazon API Gateway" style="outlineConnect=0;fontColor=#232F3E;gradientColor=none;strokeColor=#ffffff;fillColor=#232F3E;dashed=0;verticalLabelPosition=middle;verticalAlign=bottom;align=center;html=1;whiteSpace=wrap;fontSize=10;fontStyle=1;spacing=3;shape=mxgraph.aws4.productIcon;prIcon=mxgraph.aws4.api_gateway;" parent="yF2jjFJjA-9MAOKjVbNL-1" vertex="1">
          <mxGeometry x="290" y="98" width="80" height="110" as="geometry" />
        </mxCell>
        <mxCell id="J9jAqvIsXzl0PLYxBhgr-2" value="AWS Lambda" style="outlineConnect=0;fontColor=#232F3E;gradientColor=none;strokeColor=#ffffff;fillColor=#232F3E;dashed=0;verticalLabelPosition=middle;verticalAlign=bottom;align=center;html=1;whiteSpace=wrap;fontSize=10;fontStyle=1;spacing=3;shape=mxgraph.aws4.productIcon;prIcon=mxgraph.aws4.lambda;" parent="yF2jjFJjA-9MAOKjVbNL-1" vertex="1">
          <mxGeometry x="470" y="103" width="80" height="100" as="geometry" />
        </mxCell>
        <mxCell id="J9jAqvIsXzl0PLYxBhgr-3" value="Amazon S3" style="outlineConnect=0;fontColor=#232F3E;gradientColor=none;strokeColor=#ffffff;fillColor=#232F3E;dashed=0;verticalLabelPosition=middle;verticalAlign=bottom;align=center;html=1;whiteSpace=wrap;fontSize=10;fontStyle=1;spacing=3;shape=mxgraph.aws4.productIcon;prIcon=mxgraph.aws4.s3;" parent="yF2jjFJjA-9MAOKjVbNL-1" vertex="1">
          <mxGeometry x="600" y="-190" width="80" height="100" as="geometry" />
        </mxCell>
        <mxCell id="J9jAqvIsXzl0PLYxBhgr-4" value="Amazon DynamoDB" style="outlineConnect=0;fontColor=#232F3E;gradientColor=none;strokeColor=#ffffff;fillColor=#232F3E;dashed=0;verticalLabelPosition=middle;verticalAlign=bottom;align=center;html=1;whiteSpace=wrap;fontSize=10;fontStyle=1;spacing=3;shape=mxgraph.aws4.productIcon;prIcon=mxgraph.aws4.dynamodb;" parent="yF2jjFJjA-9MAOKjVbNL-1" vertex="1">
          <mxGeometry x="720" y="160" width="80" height="110" as="geometry" />
        </mxCell>
        <mxCell id="J9jAqvIsXzl0PLYxBhgr-5" value="" style="endArrow=classic;startArrow=classic;html=1;" parent="yF2jjFJjA-9MAOKjVbNL-1" edge="1">
          <mxGeometry width="50" height="50" relative="1" as="geometry">
            <mxPoint x="170" y="140" as="sourcePoint" />
            <mxPoint x="280" y="140" as="targetPoint" />
            <Array as="points" />
          </mxGeometry>
        </mxCell>
        <mxCell id="J9jAqvIsXzl0PLYxBhgr-6" value="1.Submit" style="text;html=1;align=center;verticalAlign=middle;resizable=0;points=[];autosize=1;strokeColor=none;" parent="yF2jjFJjA-9MAOKjVbNL-1" vertex="1">
          <mxGeometry x="190" y="110" width="60" height="20" as="geometry" />
        </mxCell>
        <mxCell id="J9jAqvIsXzl0PLYxBhgr-7" value="" style="endArrow=classic;startArrow=classic;html=1;" parent="yF2jjFJjA-9MAOKjVbNL-1" edge="1">
          <mxGeometry width="50" height="50" relative="1" as="geometry">
            <mxPoint x="370" y="130" as="sourcePoint" />
            <mxPoint x="480" y="130" as="targetPoint" />
            <Array as="points">
              <mxPoint x="470" y="130" />
            </Array>
          </mxGeometry>
        </mxCell>
        <mxCell id="J9jAqvIsXzl0PLYxBhgr-8" value="2. /postnas &lt;br&gt;schedule" style="text;html=1;align=center;verticalAlign=middle;resizable=0;points=[];autosize=1;strokeColor=none;" parent="yF2jjFJjA-9MAOKjVbNL-1" vertex="1">
          <mxGeometry x="375" y="85" width="70" height="30" as="geometry" />
        </mxCell>
        <mxCell id="J9jAqvIsXzl0PLYxBhgr-9" value="" style="endArrow=classic;startArrow=classic;html=1;" parent="yF2jjFJjA-9MAOKjVbNL-1" source="J9jAqvIsXzl0PLYxBhgr-2" target="J9jAqvIsXzl0PLYxBhgr-3" edge="1">
          <mxGeometry width="50" height="50" relative="1" as="geometry">
            <mxPoint x="570" y="135" as="sourcePoint" />
            <mxPoint x="620" y="85" as="targetPoint" />
          </mxGeometry>
        </mxCell>
        <mxCell id="J9jAqvIsXzl0PLYxBhgr-10" value="4. Fetch signed url to upload ssh key&lt;br&gt;not deployed in Server with UUID as metadata" style="text;html=1;align=center;verticalAlign=middle;resizable=0;points=[];autosize=1;strokeColor=none;" parent="yF2jjFJjA-9MAOKjVbNL-1" vertex="1">
          <mxGeometry x="445" y="-50" width="260" height="30" as="geometry" />
        </mxCell>
        <mxCell id="J9jAqvIsXzl0PLYxBhgr-11" value="5. Return Singed upload URL" style="text;html=1;align=center;verticalAlign=middle;resizable=0;points=[];autosize=1;strokeColor=none;" parent="yF2jjFJjA-9MAOKjVbNL-1" vertex="1">
          <mxGeometry x="550" y="40" width="170" height="20" as="geometry" />
        </mxCell>
        <mxCell id="J9jAqvIsXzl0PLYxBhgr-12" value="" style="endArrow=classic;startArrow=classic;html=1;" parent="yF2jjFJjA-9MAOKjVbNL-1" edge="1" source="J9jAqvIsXzl0PLYxBhgr-2">
          <mxGeometry width="50" height="50" relative="1" as="geometry">
            <mxPoint x="580" y="160" as="sourcePoint" />
            <mxPoint x="720" y="210" as="targetPoint" />
          </mxGeometry>
        </mxCell>
        <mxCell id="J9jAqvIsXzl0PLYxBhgr-13" value="3. Store Schedule" style="text;html=1;align=center;verticalAlign=middle;resizable=0;points=[];autosize=1;strokeColor=none;" parent="yF2jjFJjA-9MAOKjVbNL-1" vertex="1">
          <mxGeometry x="570" y="170" width="110" height="20" as="geometry" />
        </mxCell>
        <mxCell id="J9jAqvIsXzl0PLYxBhgr-14" value="6. Response" style="text;html=1;align=center;verticalAlign=middle;resizable=0;points=[];autosize=1;strokeColor=none;" parent="yF2jjFJjA-9MAOKjVbNL-1" vertex="1">
          <mxGeometry x="380" y="130" width="80" height="20" as="geometry" />
        </mxCell>
        <mxCell id="J9jAqvIsXzl0PLYxBhgr-15" value="7. Response" style="text;html=1;align=center;verticalAlign=middle;resizable=0;points=[];autosize=1;strokeColor=none;" parent="yF2jjFJjA-9MAOKjVbNL-1" vertex="1">
          <mxGeometry x="180" y="140" width="80" height="20" as="geometry" />
        </mxCell>
        <mxCell id="zFPvABQE_j9gT5AW24Re-2" value="" style="endArrow=classic;html=1;" edge="1" parent="yF2jjFJjA-9MAOKjVbNL-1" source="J9jAqvIsXzl0PLYxBhgr-0" target="J9jAqvIsXzl0PLYxBhgr-3">
          <mxGeometry width="50" height="50" relative="1" as="geometry">
            <mxPoint x="380" y="60" as="sourcePoint" />
            <mxPoint x="430" y="10" as="targetPoint" />
          </mxGeometry>
        </mxCell>
        <mxCell id="zFPvABQE_j9gT5AW24Re-3" value="8. Upload ssh key using Signed url" style="text;html=1;align=center;verticalAlign=middle;resizable=0;points=[];autosize=1;strokeColor=none;" vertex="1" parent="yF2jjFJjA-9MAOKjVbNL-1">
          <mxGeometry x="200" width="200" height="20" as="geometry" />
        </mxCell>
        <mxCell id="zFPvABQE_j9gT5AW24Re-4" value="AWS Lambda" style="outlineConnect=0;fontColor=#232F3E;gradientColor=none;strokeColor=#ffffff;fillColor=#232F3E;dashed=0;verticalLabelPosition=middle;verticalAlign=bottom;align=center;html=1;whiteSpace=wrap;fontSize=10;fontStyle=1;spacing=3;shape=mxgraph.aws4.productIcon;prIcon=mxgraph.aws4.lambda;" vertex="1" parent="yF2jjFJjA-9MAOKjVbNL-1">
          <mxGeometry x="850" y="-70" width="80" height="100" as="geometry" />
        </mxCell>
        <mxCell id="zFPvABQE_j9gT5AW24Re-5" value="" style="endArrow=classic;html=1;" edge="1" parent="yF2jjFJjA-9MAOKjVbNL-1" target="zFPvABQE_j9gT5AW24Re-4">
          <mxGeometry width="50" height="50" relative="1" as="geometry">
            <mxPoint x="670" y="-140" as="sourcePoint" />
            <mxPoint x="720" y="-190" as="targetPoint" />
          </mxGeometry>
        </mxCell>
        <mxCell id="zFPvABQE_j9gT5AW24Re-6" value="9. Trigger Lambda on S3 Bucket file upload" style="text;html=1;align=center;verticalAlign=middle;resizable=0;points=[];autosize=1;strokeColor=none;" vertex="1" parent="yF2jjFJjA-9MAOKjVbNL-1">
          <mxGeometry x="680" y="-140" width="250" height="20" as="geometry" />
        </mxCell>
        <mxCell id="zFPvABQE_j9gT5AW24Re-7" value="" style="endArrow=classic;html=1;" edge="1" parent="yF2jjFJjA-9MAOKjVbNL-1" source="zFPvABQE_j9gT5AW24Re-4" target="J9jAqvIsXzl0PLYxBhgr-4">
          <mxGeometry width="50" height="50" relative="1" as="geometry">
            <mxPoint x="865" y="140" as="sourcePoint" />
            <mxPoint x="915" y="90" as="targetPoint" />
          </mxGeometry>
        </mxCell>
        <mxCell id="zFPvABQE_j9gT5AW24Re-8" value="10. Add Object id for UUID of file metadata" style="text;html=1;align=center;verticalAlign=middle;resizable=0;points=[];autosize=1;strokeColor=none;" vertex="1" parent="yF2jjFJjA-9MAOKjVbNL-1">
          <mxGeometry x="730" y="80" width="240" height="20" as="geometry" />
        </mxCell>
      </root>
    </mxGraphModel>
  </diagram>
</mxfile>
